<svg width="103" height="40" viewBox="0 0 103 40" fill="none" xmlns="http://www.w3.org/2000/svg">
<path d="M3.648 31C3.024 31 2.544 30.832 2.208 30.496C1.872 30.16 1.704 29.68 1.704 29.056V16.024C1.704 15.4 1.872 14.92 2.208 14.584C2.544 14.248 3.024 14.08 3.648 14.08H8.328C11.224 14.08 13.456 14.816 15.024 16.288C16.608 17.744 17.4 19.824 17.4 22.528C17.4 23.888 17.192 25.096 16.776 26.152C16.376 27.192 15.792 28.072 15.024 28.792C14.256 29.512 13.312 30.064 12.192 30.448C11.072 30.816 9.784 31 8.328 31H3.648ZM5.424 27.952H8.112C9.024 27.952 9.816 27.84 10.488 27.616C11.16 27.392 11.72 27.056 12.168 26.608C12.616 26.16 12.952 25.6 13.176 24.928C13.4 24.24 13.512 23.44 13.512 22.528C13.512 20.704 13.056 19.352 12.144 18.472C11.248 17.576 9.904 17.128 8.112 17.128H5.424V27.952ZM21.8019 31.192C21.2099 31.192 20.7539 31.024 20.4339 30.688C20.1299 30.336 19.9779 29.848 19.9779 29.224V21.016C19.9779 20.376 20.1299 19.888 20.4339 19.552C20.7539 19.2 21.2099 19.024 21.8019 19.024C22.3779 19.024 22.8179 19.2 23.1219 19.552C23.4419 19.888 23.6019 20.376 23.6019 21.016V29.224C23.6019 29.848 23.4499 30.336 23.1459 30.688C22.8419 31.024 22.3939 31.192 21.8019 31.192ZM21.8019 17.056C21.1299 17.056 20.6099 16.904 20.2419 16.6C19.8899 16.28 19.7139 15.832 19.7139 15.256C19.7139 14.664 19.8899 14.216 20.2419 13.912C20.6099 13.592 21.1299 13.432 21.8019 13.432C22.4739 13.432 22.9859 13.592 23.3379 13.912C23.6899 14.216 23.8659 14.664 23.8659 15.256C23.8659 15.832 23.6899 16.28 23.3379 16.6C22.9859 16.904 22.4739 17.056 21.8019 17.056ZM30.3838 31.264C29.5198 31.264 28.7438 31.096 28.0558 30.76C27.3678 30.424 26.8318 29.968 26.4478 29.392C26.0638 28.816 25.8718 28.168 25.8718 27.448C25.8718 26.584 26.0958 25.904 26.5438 25.408C26.9918 24.896 27.7198 24.536 28.7278 24.328C29.7358 24.104 31.0718 23.992 32.7358 23.992H34.0078V25.864H32.7598C31.9438 25.864 31.2798 25.912 30.7678 26.008C30.2718 26.088 29.9118 26.232 29.6878 26.44C29.4798 26.648 29.3758 26.936 29.3758 27.304C29.3758 27.752 29.5278 28.12 29.8318 28.408C30.1518 28.696 30.6078 28.84 31.1998 28.84C31.6638 28.84 32.0718 28.736 32.4238 28.528C32.7918 28.304 33.0798 28.008 33.2878 27.64C33.4958 27.256 33.5998 26.824 33.5998 26.344V23.584C33.5998 22.88 33.4398 22.384 33.1198 22.096C32.7998 21.792 32.2558 21.64 31.4878 21.64C31.0558 21.64 30.5838 21.696 30.0718 21.808C29.5758 21.904 29.0238 22.072 28.4158 22.312C28.0638 22.472 27.7518 22.512 27.4798 22.432C27.2078 22.336 26.9998 22.176 26.8558 21.952C26.7118 21.712 26.6398 21.456 26.6398 21.184C26.6398 20.896 26.7198 20.624 26.8798 20.368C27.0398 20.096 27.3038 19.896 27.6718 19.768C28.4238 19.464 29.1278 19.256 29.7838 19.144C30.4558 19.032 31.0718 18.976 31.6318 18.976C32.8638 18.976 33.8718 19.16 34.6558 19.528C35.4558 19.88 36.0558 20.432 36.4558 21.184C36.8558 21.92 37.0558 22.872 37.0558 24.04V29.368C37.0558 29.96 36.9118 30.416 36.6238 30.736C36.3358 31.056 35.9198 31.216 35.3758 31.216C34.8318 31.216 34.4078 31.056 34.1038 30.736C33.8158 30.416 33.6718 29.96 33.6718 29.368V28.48L33.8398 28.624C33.7438 29.168 33.5358 29.64 33.2158 30.04C32.9118 30.424 32.5198 30.728 32.0398 30.952C31.5598 31.16 31.0078 31.264 30.3838 31.264ZM41.5832 31.216C40.9912 31.216 40.5352 31.056 40.2152 30.736C39.9112 30.416 39.7592 29.96 39.7592 29.368V20.848C39.7592 20.256 39.9112 19.808 40.2152 19.504C40.5352 19.184 40.9752 19.024 41.5352 19.024C42.1112 19.024 42.5512 19.184 42.8552 19.504C43.1592 19.808 43.3112 20.256 43.3112 20.848V22.216L43.0472 21.424C43.4152 20.64 43.9592 20.04 44.6792 19.624C45.4152 19.192 46.2472 18.976 47.1752 18.976C48.1192 18.976 48.8952 19.16 49.5032 19.528C50.1112 19.88 50.5672 20.424 50.8712 21.16C51.1752 21.88 51.3272 22.8 51.3272 23.92V29.368C51.3272 29.96 51.1672 30.416 50.8472 30.736C50.5432 31.056 50.0952 31.216 49.5032 31.216C48.9272 31.216 48.4792 31.056 48.1592 30.736C47.8552 30.416 47.7032 29.96 47.7032 29.368V24.088C47.7032 23.272 47.5512 22.688 47.2472 22.336C46.9592 21.968 46.5112 21.784 45.9032 21.784C45.1352 21.784 44.5192 22.024 44.0552 22.504C43.6072 22.984 43.3832 23.624 43.3832 24.424V29.368C43.3832 30.6 42.7832 31.216 41.5832 31.216Z" fill="#027BFB"/>
<path d="M57.68 31.14C57.3467 31.14 57.0867 31.0467 56.9 30.86C56.7267 30.6733 56.64 30.4133 56.64 30.08V17.82C56.64 17.4733 56.7267 17.2133 56.9 17.04C57.0867 16.8533 57.3467 16.76 57.68 16.76C58.0133 16.76 58.2667 16.8533 58.44 17.04C58.6267 17.2133 58.72 17.4733 58.72 17.82V22.98H66.62V17.82C66.62 17.4733 66.7067 17.2133 66.88 17.04C67.0667 16.8533 67.3267 16.76 67.66 16.76C67.9933 16.76 68.2467 16.8533 68.42 17.04C68.5933 17.2133 68.68 17.4733 68.68 17.82V30.08C68.68 30.4133 68.5933 30.6733 68.42 30.86C68.2467 31.0467 67.9933 31.14 67.66 31.14C67.3267 31.14 67.0667 31.0467 66.88 30.86C66.7067 30.6733 66.62 30.4133 66.62 30.08V24.72H58.72V30.08C58.72 30.4133 58.6333 30.6733 58.46 30.86C58.2867 31.0467 58.0267 31.14 57.68 31.14ZM73.012 31.14C72.6787 31.14 72.4187 31.0467 72.232 30.86C72.0587 30.6733 71.972 30.4133 71.972 30.08V17.96C71.972 17.6133 72.0654 17.3533 72.252 17.18C72.4387 16.9933 72.6987 16.9 73.032 16.9H77.812C79.332 16.9 80.5054 17.26 81.332 17.98C82.1587 18.7 82.572 19.72 82.572 21.04C82.572 21.8933 82.3854 22.6267 82.012 23.24C81.6387 23.8533 81.092 24.32 80.372 24.64C79.6654 24.96 78.812 25.12 77.812 25.12L77.992 24.84H78.512C79.0454 24.84 79.5054 24.9733 79.892 25.24C80.292 25.5067 80.652 25.9333 80.972 26.52L82.692 29.72C82.8254 29.96 82.8854 30.1933 82.872 30.42C82.872 30.6333 82.792 30.8067 82.632 30.94C82.4854 31.0733 82.272 31.14 81.992 31.14C81.6987 31.14 81.4587 31.08 81.272 30.96C81.0987 30.8267 80.9387 30.6333 80.792 30.38L78.692 26.5C78.412 25.98 78.092 25.6333 77.732 25.46C77.372 25.2733 76.8987 25.18 76.312 25.18H74.052V30.08C74.052 30.4133 73.9654 30.6733 73.792 30.86C73.6187 31.0467 73.3587 31.14 73.012 31.14ZM74.052 23.62H77.472C78.4854 23.62 79.252 23.4067 79.772 22.98C80.292 22.5533 80.552 21.92 80.552 21.08C80.552 20.2533 80.292 19.6267 79.772 19.2C79.252 18.7733 78.4854 18.56 77.472 18.56H74.052V23.62Z" fill="#4F4F4F"/>
<circle cx="92.5" cy="10.5" r="10.5" fill="#FEDE01"/>
</svg>
